HIERARCHY
ROOT Beta:Hips
{
	OFFSET 0.00 0.00 0.00
	CHANNELS 6 Xposition Yposition Zposition Yrotation Xrotation Zrotation
	JOINT Beta:Spine
	{
		OFFSET	0.0000	9.2263	1.5771
		CHANNELS 3 Xrotation Yrotation Zrotation
		JOINT Beta:Spine1
		{
			OFFSET	0.0000	16.2540	-0.1656
			CHANNELS 3 Xrotation Yrotation Zrotation
			JOINT Beta:Spine2
			{
				OFFSET	0.0000	13.6396	-1.2923
				CHANNELS 3 Xrotation Yrotation Zrotation
				JOINT Beta:Neck
				{
					OFFSET	0.0000	13.8774	-4.3542
					CHANNELS 3 Xrotation Yrotation Zrotation
					JOINT Beta:Neck1
					{
						OFFSET	0.0000	4.3400	0.9269
						CHANNELS 3 Xrotation Yrotation Zrotation
						JOINT Beta:Head
						{
							OFFSET	0.0000	4.0266	0.8585
							CHANNELS 3 Xrotation Yrotation Zrotation
							End Site
							{
								OFFSET 0.0000 23.0297 0.1231
							}
						}
					}
				}
				JOINT Beta:LeftShoulder
				{
					OFFSET	6.1442	10.1870	-3.7932
					CHANNELS 3 Zrotation Xrotation Yrotation
					JOINT Beta:LeftArm
					{
						OFFSET	12.3191	-1.1130	-1.7935
						CHANNELS 3 Zrotation Xrotation Yrotation
						JOINT Beta:LeftForeArm
						{
							OFFSET	27.6870	0.0000	0.0000
							CHANNELS 3 Xrotation Zrotation Yrotation
							JOINT Beta:LeftHand
							{
								OFFSET	27.8738	0.0000	0.0000
								CHANNELS 3 Zrotation Yrotation Xrotation
								JOINT Beta:LeftHandThumb1
								{
									OFFSET	2.3785	-1.0029	2.6209
									CHANNELS 3 Zrotation Xrotation Yrotation
									JOINT Beta:LeftHandThumb2
									{
										OFFSET	3.3624	-1.0029	2.8398
										CHANNELS 3 Zrotation Xrotation Yrotation
										JOINT Beta:LeftHandThumb3
										{
											OFFSET	4.5018	-1.3445	2.1783
											CHANNELS 3 Zrotation Xrotation Yrotation
											End Site
											{
												OFFSET 2.6000 -1.0000 1.0000
											}
										}
									}
								}
								JOINT Beta:LeftHandMiddle1
								{
									OFFSET	10.4639	0.6148	0.4298
									CHANNELS 3 Zrotation Xrotation Yrotation
									JOINT Beta:LeftHandMiddle2
									{
										OFFSET	5.7921	0.0000	0.0000
										CHANNELS 3 Zrotation Xrotation Yrotation
										JOINT Beta:LeftHandMiddle3
										{
											OFFSET	3.7132	0.0000	0.0000
											CHANNELS 3 Zrotation Xrotation Yrotation
											End Site
											{
												OFFSET 2.3000 0.0000 0.0000
											}
										}
									}
								}
								JOINT Beta:LeftHandIndex1
								{
									OFFSET	10.3945	0.6148	2.7055
									CHANNELS 3 Zrotation Xrotation Yrotation
									JOINT Beta:LeftHandIndex2
									{
										OFFSET	5.5493	0.0000	0.0000
										CHANNELS 3 Zrotation Xrotation Yrotation
										JOINT Beta:LeftHandIndex3
										{
											OFFSET	3.3911	0.0000	0.0000
											CHANNELS 3 Zrotation Xrotation Yrotation
											End Site
											{
												OFFSET 2.5000 0.0000 0.0000
											}
										}
									}
								}
								JOINT Beta:LeftHandRing1
								{
									OFFSET	10.3252	0.3211	-1.8755
									CHANNELS 3 Zrotation Xrotation Yrotation
									JOINT Beta:LeftHandRing2
									{
										OFFSET	5.4452	0.0000	0.0000
										CHANNELS 3 Zrotation Xrotation Yrotation
										JOINT Beta:LeftHandRing3
										{
											OFFSET	3.7132	0.0000	0.0000
											CHANNELS 3 Zrotation Xrotation Yrotation
											End Site
											{
												OFFSET 2.0000 0.0000 0.0000
											}
										}
									}
								}
								JOINT Beta:LeftHandPinky1
								{
									OFFSET	10.0130	-0.0783	-3.9671
									CHANNELS 3 Zrotation Xrotation Yrotation
									JOINT Beta:LeftHandPinky2
									{
										OFFSET	3.6763	0.0000	0.0000
										CHANNELS 3 Zrotation Xrotation Yrotation
										JOINT Beta:LeftHandPinky3
										{
											OFFSET	2.8113	0.0000	0.0000
											CHANNELS 3 Zrotation Xrotation Yrotation
											End Site
											{
												OFFSET 2.9000 0.0000 0.0000
											}
										}
									}
								}
							}
						}
					}
				}
				JOINT Beta:RightShoulder
				{
					OFFSET	-6.1402	10.1870	-3.7932
					CHANNELS 3 Zrotation Xrotation Yrotation
					JOINT Beta:RightArm
					{
						OFFSET	-12.3231	-1.1130	-1.7935
						CHANNELS 3 Zrotation Xrotation Yrotation
						JOINT Beta:RightForeArm
						{
							OFFSET	-27.6870	0.0000	0.0000
							CHANNELS 3 Xrotation Zrotation Yrotation
							JOINT Beta:RightHand
							{
								OFFSET	-27.8738	0.0000	0.0000
								CHANNELS 3 Zrotation Yrotation Xrotation
								JOINT Beta:RightHandThumb1
								{
									OFFSET	-2.5178	-0.9367	2.5137
									CHANNELS 3 Zrotation Xrotation Yrotation
									JOINT Beta:RightHandThumb2
									{
										OFFSET	-3.2638	-1.0870	2.9669
										CHANNELS 3 Zrotation Xrotation Yrotation
										JOINT Beta:RightHandThumb3
										{
											OFFSET	-4.4165	-1.3703	2.1350
											CHANNELS 3 Zrotation Xrotation Yrotation
											End Site
											{
												OFFSET -2.6000 -1.0000 1.0000
											}
										}
									}
								}
								JOINT Beta:RightHandIndex1
								{
									OFFSET	-10.4665	0.4896	2.7120
									CHANNELS 3 Zrotation Xrotation Yrotation
									JOINT Beta:RightHandIndex2
									{
										OFFSET	-5.3768	0.0000	0.0000
										CHANNELS 3 Zrotation Xrotation Yrotation
										JOINT Beta:RightHandIndex3
										{
											OFFSET	-3.3855	0.0000	0.0000
											CHANNELS 3 Zrotation Xrotation Yrotation
											End Site
											{
												OFFSET -2.6000 0.0000 0.0000
											}
										}
									}
								}
								JOINT Beta:RightHandMiddle1
								{
									OFFSET	-10.7596	0.4896	0.4278
									CHANNELS 3 Zrotation Xrotation Yrotation
									JOINT Beta:RightHandMiddle2
									{
										OFFSET	-5.6168	0.0000	0.0000
										CHANNELS 3 Zrotation Xrotation Yrotation
										JOINT Beta:RightHandMiddle3
										{
											OFFSET	-3.7364	0.0000	0.0000
											CHANNELS 3 Zrotation Xrotation Yrotation
											End Site
											{
												OFFSET -2.3000 0.0000 0.0000
											}
										}
									}
								}
								JOINT Beta:RightHandRing1
								{
									OFFSET	-10.4702	0.3879	-1.9363
									CHANNELS 3 Zrotation Xrotation Yrotation
									JOINT Beta:RightHandRing2
									{
										OFFSET	-5.4013	0.0000	0.0000
										CHANNELS 3 Zrotation Xrotation Yrotation
										JOINT Beta:RightHandRing3
										{
											OFFSET	-3.3916	0.0000	0.0000
											CHANNELS 3 Zrotation Xrotation Yrotation
											End Site
											{
												OFFSET -2.2000 0.0000 0.0000
											}
										}
									}
								}
								JOINT Beta:RightHandPinky1
								{
									OFFSET	-9.9715	-0.1191	-3.9540
									CHANNELS 3 Zrotation Xrotation Yrotation
									JOINT Beta:RightHandPinky2
									{
										OFFSET	-3.6528	0.0000	0.0000
										CHANNELS 3 Zrotation Xrotation Yrotation
										JOINT Beta:RightHandPinky3
										{
											OFFSET	-2.7820	0.0000	0.0000
											CHANNELS 3 Zrotation Xrotation Yrotation
											End Site
											{
												OFFSET -2.9000 0.0000 0.0000
											}
										}
									}
								}
							}
						}
					}
				}
			}
		}
	}
	JOINT Beta:LeftUpLeg
	{
		OFFSET	9.6338	-3.2733	0.0000
		CHANNELS 3 Xrotation Yrotation Zrotation
		JOINT Beta:LeftLeg
		{
			OFFSET	0.0000	-41.7300	-1.7300
			CHANNELS 3 Xrotation Yrotation Zrotation
			JOINT Beta:LeftFoot
			{
				OFFSET	0.0126	-39.1900	-0.8477
				CHANNELS 3 Xrotation Yrotation Zrotation
				JOINT Beta:LeftToeBase
				{
					OFFSET	-0.1833	-12.1931	8.2823
					CHANNELS 3 Xrotation Yrotation Zrotation
					End Site
					{
						OFFSET 0.0000 0.0000 10.1681
					}
				}
			}
		}
	}
	JOINT Beta:RightUpLeg
	{
		OFFSET	-9.6338	-3.2733	0.0000
		CHANNELS 3 Xrotation Yrotation Zrotation
		JOINT Beta:RightLeg
		{
			OFFSET	0.0000	-41.7300	-1.7300
			CHANNELS 3 Xrotation Yrotation Zrotation
			JOINT Beta:RightFoot
			{
				OFFSET	0.0126	-39.1900	-0.8477
				CHANNELS 3 Xrotation Yrotation Zrotation
				JOINT Beta:RightToeBase
				{
					OFFSET	-0.1833	-12.1931	8.2823
					CHANNELS 3 Xrotation Yrotation Zrotation
					End Site
					{
						OFFSET 0.0032 0.0000 10.1681
					}
				}
			}
		}
	}
}
MOTION
Frames: 5
Frame Time: 0.0333333
0.1114 95.2892 0.0499 -6.0982 -3.7299 -3.8837 3.2876 1.5814 3.4253 1.1581 0.3579 1.6910 1.1318 0.3835 1.6966 5.6263 -0.0790 0.4547 -0.0000 0.0000 -0.0000 -7.5633 1.3757 -0.0806 -11.7848 4.6941 -16.8493 -69.8728 20.0976 -3.2887 -0.0000 0.0000 -1.4594 -8.5115 -3.9540 -26.8291 -1.2620 4.7859 8.5754 14.3734 8.6030 13.9589 -4.4052 -7.3981 1.1522 -12.5290 0.0000 -1.3262 -17.4936 -0.0000 0.0000 -18.5059 0.0000 -0.0000 -4.0798 0.4226 -4.0627 -17.4817 -0.0000 -0.0000 -8.1000 0.0000 0.0000 -18.0279 -0.0000 -0.8964 -21.0119 -0.0000 -0.0000 -17.9526 -0.0000 0.0000 -24.1385 -0.0478 0.5632 -17.5116 -0.0000 0.0000 -16.6100 -0.0000 -0.0000 14.2263 5.0179 14.5673 61.3313 30.2134 2.5703 -0.0000 -0.0000 6.6937 9.6610 0.3539 -15.3862 1.2621 4.7859 -8.5754 -12.8214 8.9392 -16.2596 0.7980 -9.7712 4.0872 4.0800 0.4202 4.0627 17.4650 0.0000 -0.0000 8.0833 0.0000 0.0000 12.5291 -0.0000 1.3333 17.5080 -0.0000 -0.0000 18.5199 0.0000 -0.0000 18.0279 0.0000 0.8904 21.0108 -0.0000 0.0000 17.9517 -0.0000 0.0000 24.1385 -0.0457 -0.5632 17.4915 -0.0000 -0.0000 16.5876 0.0000 0.0000 -19.9225 31.8157 16.9475 20.1733 -7.2204 5.8906 -3.3195 -8.4805 -6.0502 -4.9285 0.0000 0.0000 -0.6872 -10.5243 3.8478 11.4543 -9.8685 -3.2800 -6.3562 -1.7217 3.5383 -7.2829 -0.0000 0.0000 
-0.0576 95.2448 -0.6931 -2.3956 -2.9542 -3.5949 3.3658 1.8227 3.4964 1.2485 0.5098 1.6999 1.2183 0.5363 1.6559 5.5235 0.6124 0.1004 -0.0000 0.0000 -0.0000 -7.8898 3.5798 -0.6443 -12.0153 4.7359 -16.9571 -68.6833 19.5516 -4.7993 -0.0000 0.0000 -2.2395 -6.8718 -4.5002 -26.6830 -1.2621 4.7859 8.5754 14.3734 8.3986 13.9450 -4.4051 -7.4343 1.2440 -12.6004 -0.0000 -1.4041 -17.4977 0.0000 0.0000 -18.5102 -0.0000 -0.0000 -4.1475 0.4226 -4.0846 -17.4817 -0.0000 -0.0000 -8.1001 0.0000 0.0000 -18.0951 -0.0000 -0.8939 -21.0398 -0.0000 0.0000 -17.9805 -0.0000 0.0000 -24.1810 -0.0478 0.5192 -17.5117 0.0000 0.0000 -16.6100 -0.0000 -0.0000 13.9848 5.0179 14.6387 61.1411 30.5510 2.0606 0.0000 -0.0000 6.9843 9.6250 0.2805 -15.7521 1.2621 4.7859 -8.5754 -12.8238 8.9188 -16.2170 0.7980 -9.7712 4.0872 4.1049 0.4202 4.0871 17.4598 0.0000 0.0000 8.0781 0.0000 -0.0000 12.6162 -0.0000 1.3301 17.5080 -0.0000 -0.0000 18.5199 0.0000 -0.0000 18.0911 -0.0000 0.9096 21.0108 0.0000 -0.0000 17.9517 0.0000 0.0000 24.2207 -0.0629 -0.4635 17.5631 -0.0000 0.0000 16.6571 0.0000 -0.0000 -22.5237 31.4776 17.9212 21.2337 -7.7057 4.3440 -2.0277 -10.9691 -7.2324 -4.4104 0.0000 -0.0000 -2.1141 -14.2474 3.2422 12.8770 -9.9737 -3.2800 -7.0531 -1.7353 3.5019 -7.2829 -0.0000 0.0000 
-0.4191 95.2409 -1.4838 1.5174 -2.3968 -3.2395 3.4831 2.0100 3.4827 1.3610 0.6333 1.8081 1.3276 0.6537 1.6484 5.6962 1.8106 -0.4446 -0.0000 0.0000 -0.0000 -7.7521 6.7756 -1.4594 -12.3940 4.8012 -17.0990 -66.9746 18.9837 -6.7688 -0.0000 0.0000 -2.6500 -4.8982 -3.9714 -25.0860 -1.2621 4.7859 8.5754 14.3677 8.5666 13.9801 -4.3923 -7.4355 1.1703 -12.7588 -0.0000 -1.4035 -17.5126 0.0000 -0.0000 -18.5251 -0.0000 0.0000 -4.2808 0.4336 -4.0602 -17.4817 0.0000 0.0000 -8.1001 -0.0000 -0.0000 -18.2129 0.0000 -0.8652 -21.0616 0.0000 0.0000 -18.0022 0.0000 0.0000 -24.2493 -0.0478 0.5457 -17.5116 0.0000 0.0000 -16.6100 0.0000 -0.0000 13.7524 5.0130 14.6700 60.8906 30.5767 1.2983 -0.0000 0.0000 7.4365 9.5215 -0.0347 -16.2192 1.2620 4.7859 -8.5754 -12.7770 8.9456 -16.2752 0.7980 -9.7712 4.0872 4.1969 0.4202 4.0930 17.4374 0.0000 -0.0000 8.0558 0.0000 0.0000 12.6997 0.0000 1.3135 17.5080 -0.0000 0.0000 18.5199 0.0000 -0.0000 18.1805 -0.0000 0.9410 21.0108 -0.0000 -0.0000 17.9517 0.0000 -0.0000 24.3261 -0.0830 -0.3471 17.5336 -0.0000 0.0000 16.6252 0.0000 0.0000 -25.3591 31.0044 19.2814 22.7627 -8.3162 2.9495 -0.2400 -11.7448 -11.7484 -3.9662 -0.0000 0.0000 -3.1284 -18.1160 2.6365 13.7708 -10.0025 -3.2800 -7.5233 -1.8336 3.3129 -7.2829 0.0000 -0.0000 
-0.9323 95.2702 -2.3831 5.3975 -2.0472 -2.9575 3.6443 2.1652 3.2624 1.5081 0.7685 2.0072 1.4725 0.7725 1.6626 6.1494 3.4073 -1.1010 -0.0000 0.0000 -0.0000 -7.0051 10.7473 -2.4483 -12.8534 4.8694 -17.2034 -64.9561 18.2960 -8.8210 0.0000 0.0000 -3.1411 -2.6460 -2.9084 -22.6201 -1.2620 4.7859 8.5754 14.3475 9.1211 14.1837 -4.3013 -7.2810 0.8779 -13.1277 -0.0000 -1.3017 -17.5472 -0.0000 -0.0000 -18.5593 0.0000 -0.0000 -4.6001 0.4678 -3.9851 -17.4817 -0.0000 0.0000 -8.1001 -0.0000 -0.0000 -18.4526 -0.0000 -0.7951 -21.0784 -0.0000 0.0000 -18.0186 0.0000 -0.0000 -24.4017 -0.0354 0.6558 -17.5117 -0.0000 0.0000 -16.6100 0.0000 0.0000 13.5747 4.9944 14.6395 60.5884 30.3231 0.3705 -0.0000 0.0000 7.9819 9.3906 -0.6385 -16.7946 1.2621 4.7859 -8.5754 -12.7139 8.9905 -16.3734 0.7980 -9.7712 4.0872 4.3015 0.4202 4.0880 17.4191 -0.0000 0.0000 8.0375 0.0000 0.0000 12.7653 -0.0000 1.3025 17.5080 0.0000 0.0000 18.5199 0.0000 0.0000 18.2572 -0.0000 0.9624 21.0108 0.0000 0.0000 17.9517 0.0000 -0.0000 24.4012 -0.0979 -0.2603 17.5164 0.0000 0.0000 16.6062 -0.0000 -0.0000 -27.0222 30.9086 20.3028 23.7542 -8.9903 1.4897 0.9207 -9.0358 -14.7814 -3.6812 -0.0000 0.0000 -3.7562 -21.9406 2.2169 14.0737 -10.0027 -3.2800 -7.6606 -1.9268 2.9643 -7.2829 0.0000 0.0000 
-1.6086 95.4778 -3.3441 8.9407 -1.8743 -2.5242 3.8229 2.3221 2.7559 1.6706 0.9518 2.2625 1.6340 0.9289 1.6720 6.7816 5.1592 -1.7367 -0.0000 0.0000 -0.0000 -5.5985 15.0328 -3.4998 -13.3048 4.9205 -17.2128 -62.9550 17.3531 -10.4646 0.0000 0.0000 -4.1114 -0.1405 -1.7898 -19.9689 -1.2620 4.7859 8.5754 14.3254 9.7440 14.4753 -4.1383 -6.9359 0.4870 -13.6027 0.0000 -1.1525 -17.5955 -0.0000 0.0000 -18.6068 0.0000 -0.0000 -5.0435 0.5117 -3.8890 -17.4817 -0.0000 -0.0000 -8.1000 0.0000 0.0000 -18.7683 0.0000 -0.7066 -21.0872 -0.0000 0.0000 -18.0272 -0.0000 0.0000 -24.6138 -0.0173 0.8108 -17.5116 0.0000 0.0000 -16.6100 -0.0000 -0.0000 13.4846 4.9705 14.5634 60.2163 30.0208 -0.6174 -0.0000 -0.0000 8.5614 9.2561 -1.5488 -17.4318 1.2621 4.7859 -8.5754 -12.6591 9.0335 -16.4662 0.7980 -9.7712 4.0872 4.3659 0.4202 4.0844 17.4314 0.0000 0.0000 8.0497 -0.0000 -0.0000 12.7897 -0.0000 1.2984 17.5116 -0.0000 -0.0000 18.5236 0.0000 0.0000 18.2943 0.0000 0.9687 21.0108 0.0000 -0.0000 17.9517 -0.0000 -0.0000 24.4314 -0.1073 -0.2063 17.5830 0.0000 0.0000 16.6716 0.0000 -0.0000 -27.4588 31.0839 20.9441 24.6153 -9.3479 -0.0891 2.6882 -0.3855 -13.5730 -3.7934 0.0000 -0.0000 -3.3646 -25.5673 2.1147 12.3998 -10.0032 -3.2800 -6.7749 -1.7533 2.3446 -7.2829 0.0000 0.0000 
